<mxfile host="app.diagrams.net" modified="2022-08-14T10:17:06.687Z" agent="5.0 (Windows)" etag="ck2mnTxAyG3Qi7wRYaC9" version="20.2.3" type="github">
  <diagram name="Page-1" id="c7558073-3199-34d8-9f00-42111426c3f3">
    <mxGraphModel dx="1038" dy="1705" grid="1" gridSize="10" guides="1" tooltips="1" connect="1" arrows="1" fold="1" page="1" pageScale="1" pageWidth="826" pageHeight="1169" background="none" math="0" shadow="0">
      <root>
        <mxCell id="0" />
        <mxCell id="1" parent="0" />
        <mxCell id="2" value="&lt;p style=&quot;margin: 0px; margin-top: 4px; text-align: center; text-decoration: underline;&quot;&gt;&lt;strong&gt;Process 1&lt;br&gt;&lt;/strong&gt;&lt;/p&gt;&lt;hr&gt;&lt;p style=&quot;margin: 0px; margin-left: 8px;&quot;&gt;Create Gift&lt;br&gt;&lt;/p&gt;" style="verticalAlign=middle;align=center;overflow=fill;fontSize=12;fontFamily=Helvetica;html=1;rounded=1;fontStyle=1;strokeWidth=3;fillColor=#E6FFCC" parent="1" vertex="1">
          <mxGeometry x="550" y="236" width="110" height="94" as="geometry" />
        </mxCell>
        <mxCell id="4" value="User" style="whiteSpace=wrap;align=center;verticalAlign=middle;fontStyle=1;strokeWidth=3;fillColor=#FFFFCC" parent="1" vertex="1">
          <mxGeometry x="40" y="251" width="90" height="60" as="geometry" />
        </mxCell>
        <mxCell id="5" value="ON-DEMAND SYSTEM DEVELOPMENT" style="shape=process;whiteSpace=wrap;align=center;verticalAlign=middle;size=0.0475;fontStyle=1;strokeWidth=3;fillColor=#FFCCCC" parent="1" vertex="1">
          <mxGeometry x="214.99999999999991" y="680" width="400" height="50" as="geometry" />
        </mxCell>
        <mxCell id="37" value="" style="edgeStyle=none;noEdgeStyle=1;strokeColor=#990000;strokeWidth=2" parent="1" edge="1">
          <mxGeometry width="100" height="100" relative="1" as="geometry">
            <mxPoint x="130" y="265.8269230769231" as="sourcePoint" />
            <mxPoint x="550" y="264.21153846153857" as="targetPoint" />
          </mxGeometry>
        </mxCell>
        <mxCell id="52" value="Choose contacts" style="text;spacingTop=-5;align=center" parent="1" vertex="1">
          <mxGeometry x="185" y="239" width="30" height="20" as="geometry" />
        </mxCell>
        <mxCell id="54" value="Documentation&#xa;from similar projects" style="text;spacingTop=-5;align=center" parent="1" vertex="1">
          <mxGeometry x="200" y="630" width="30" height="20" as="geometry" />
        </mxCell>
        <mxCell id="57" value="Elaborate&#xa;cost/benefit&#xa;ratio" style="text;spacingTop=-5;align=center" parent="1" vertex="1">
          <mxGeometry x="320" y="630" width="30" height="20" as="geometry" />
        </mxCell>
        <mxCell id="60" value="Create Gift" style="text;spacingTop=-5;align=center" parent="1" vertex="1">
          <mxGeometry x="480.0000000000001" y="-10.00000000000017" width="30" height="20" as="geometry" />
        </mxCell>
        <mxCell id="CxtjuAlfhC0SWpEEl5Tw-96" value="" style="edgeStyle=none;noEdgeStyle=1;strokeColor=#990000;strokeWidth=2" edge="1" parent="1">
          <mxGeometry width="100" height="100" relative="1" as="geometry">
            <mxPoint x="132" y="287.8269230769231" as="sourcePoint" />
            <mxPoint x="552" y="286.21153846153857" as="targetPoint" />
          </mxGeometry>
        </mxCell>
        <mxCell id="CxtjuAlfhC0SWpEEl5Tw-97" value="Choose category and amount value" style="text;html=1;strokeColor=none;fillColor=none;align=center;verticalAlign=middle;whiteSpace=wrap;rounded=0;" vertex="1" parent="1">
          <mxGeometry x="140" y="264" width="210" height="30" as="geometry" />
        </mxCell>
        <mxCell id="CxtjuAlfhC0SWpEEl5Tw-98" value="" style="edgeStyle=none;noEdgeStyle=1;strokeColor=#990000;strokeWidth=2" edge="1" parent="1">
          <mxGeometry width="100" height="100" relative="1" as="geometry">
            <mxPoint x="132" y="309.8269230769231" as="sourcePoint" />
            <mxPoint x="552" y="308.21153846153857" as="targetPoint" />
          </mxGeometry>
        </mxCell>
        <mxCell id="CxtjuAlfhC0SWpEEl5Tw-99" value="Set name" style="text;html=1;strokeColor=none;fillColor=none;align=center;verticalAlign=middle;whiteSpace=wrap;rounded=0;" vertex="1" parent="1">
          <mxGeometry x="140" y="283" width="210" height="30" as="geometry" />
        </mxCell>
      </root>
    </mxGraphModel>
  </diagram>
</mxfile>
